<?xml version="1.0" encoding="utf-8"?>
<!-- Generator: Adobe Illustrator 24.3.0, SVG Export Plug-In . SVG Version: 6.00 Build 0)  -->
<svg version="1.1" id="Layer_1" xmlns="http://www.w3.org/2000/svg" xmlns:xlink="http://www.w3.org/1999/xlink" x="0px" y="0px"
	 viewBox="0 0 1070 300" style="enable-background:new 0 0 1070 300;" xml:space="preserve">
<style type="text/css">
	.st0{fill:none;}
	.st1{fill:#80BC00;}
</style>
<rect class="st0" width="1070" height="300"/>
<path d="M1026.6,183.3v-1.8h1.1c0.6,0,1.5,0,1.5,0.8s-0.4,1-1.2,1H1026.6 M1026.6,184.6h0.8l1.8,3.1h1.9l-1.9-3.2
	c1,0.1,1.8-0.7,1.8-1.6c0-0.1,0-0.2,0-0.3c0-1.7-1.2-2.2-3.1-2.2h-2.8v7.3h1.6L1026.6,184.6 M1034.8,184c0-4.3-3.3-6.8-7.1-6.8
	c-3.7,0-7.1,2.5-7.1,6.8s3.3,6.8,7.1,6.8S1034.8,188.3,1034.8,184 M1032.8,184c0.1,2.8-2,5.1-4.8,5.2c-0.1,0-0.2,0-0.2,0l0,0
	c-2.9,0.1-5.3-2.1-5.4-5s2.1-5.3,5-5.4c2.9-0.1,5.3,2.1,5.4,5C1032.8,183.9,1032.8,183.9,1032.8,184z"/>
<path d="M775.6,111.3v77.1h21.8v-77.1L775.6,111.3z M604.2,111.2v77.2h22v-60l17.1,0.1c5.6,0,9.5,1.4,12.3,4.3
	c3.4,3.7,4.9,9.6,4.9,20.4v35.2h21.3v-42.7c0-30.5-19.4-34.6-38.4-34.6L604.2,111.2L604.2,111.2z M810.6,111.3v77.1H846
	c18.8,0,25-3.1,31.6-10.2c4.7-4.9,7.7-15.7,7.7-27.6c0-10.8-2.6-20.5-7.1-26.5c-8.1-10.8-19.7-12.9-37.1-12.9L810.6,111.3z
	 M832.3,128.1h9.4c13.6,0,22.4,6.1,22.4,21.9s-8.8,21.9-22.4,21.9h-9.4V128.1z M744.2,111.3L726,172.4l-17.4-61.1h-23.5l24.9,77.1
	h31.4l25.1-77.1L744.2,111.3z M895.5,188.4h21.8v-77.1h-21.8V188.4z M956.5,111.3l-30.4,77.1h21.5l4.8-13.6h36l4.6,13.6h23.3
	l-30.7-77.1L956.5,111.3z M970.7,125.4l13.2,36.1h-26.8L970.7,125.4z"/>
<path class="st1" d="M463.7,124.2v-10.7c1-0.1,2.1-0.1,3.1-0.2c29-0.9,48.1,24.9,48.1,24.9s-20.6,28.6-42.6,28.6
	c-2.9,0-5.8-0.5-8.6-1.4v-32.2c11.3,1.4,13.6,6.4,20.4,17.7l15.1-12.7c0,0-11-14.5-29.6-14.5C467.6,123.8,465.6,123.9,463.7,124.2
	 M463.7,89.1V105c1-0.1,2.1-0.1,3.1-0.2c40.4-1.4,66.7,33.1,66.7,33.1s-30.2,36.7-61.7,36.7c-2.7,0-5.4-0.2-8.1-0.7v9.8
	c2.2,0.3,4.5,0.4,6.8,0.4c29.3,0,50.5-15,71-32.7c3.4,2.7,17.3,9.3,20.2,12.3c-19.5,16.3-65,29.5-90.7,29.5c-2.5,0-4.9-0.2-7.2-0.4
	v13.8H575V89.1H463.7z M463.7,165.5v8.4c-27.1-4.8-34.6-33-34.6-33c9.3-9.3,21.5-15.2,34.6-16.7v9.2l0,0
	c-11.3-1.4-20.2,9.2-20.2,9.2S448.4,160.4,463.7,165.5 M415.5,139.7c0,0,16.1-23.7,48.1-26.1V105c-35.5,2.9-66.3,32.9-66.3,32.9
	s17.4,50.4,66.3,55v-9.1C427.8,179.2,415.5,139.7,415.5,139.7L415.5,139.7z"/>
<path d="M96.8,111.1h18v77.4h-18v-8.1c-5.8,6.8-14.3,10.6-23.2,10.5c-23.9,0-37.5-19.8-37.5-41.2c0-25.2,17.3-40.6,37.7-40.6
	c9-0.2,17.5,3.9,23,11V111.1z M54.5,150c0,13.4,8.5,24.6,21.5,24.6c11.4,0,21.9-8.3,21.9-24.4c0-16.9-10.5-25-21.9-25
	C63,125.2,54.5,136.3,54.5,150z M136.2,111.1h18v7c2.2-2.5,4.7-4.7,7.5-6.4c3.4-1.9,7.2-2.8,11-2.6c5-0.1,9.9,1.2,14.1,3.7
	l-7.3,16.4c-2.7-1.8-5.9-2.8-9.2-2.8c-3.9,0-7.7,0.6-11.2,4.2c-5,5.3-5,12.7-5,17.8v40.1h-18L136.2,111.1L136.2,111.1z M198.6,111.1
	h18v7.2c4.6-5.9,11.7-9.3,19.1-9.2c8.2-0.1,15.9,4.2,20,11.4c6.4-9.2,16.2-11.4,23-11.4c9.4,0,17.6,4.4,22,12.1
	c1.5,2.6,4,8.3,4,19.5v47.8h-18v-42.6c0-8.6-0.9-12.1-1.7-13.8c-1.1-2.9-3.9-6.8-10.3-6.8c-4.3,0.1-8.2,2.2-10.7,5.7
	c-3.1,4.4-3.5,11-3.5,17.6v39.9h-18v-42.6c0-8.6-0.9-12.1-1.7-13.8c-1.1-2.9-3.9-6.8-10.3-6.8c-4.3,0.1-8.2,2.2-10.7,5.7
	c-3.1,4.4-3.5,11-3.5,17.6v39.9h-18v-77.4H198.6z"/>
</svg>
